<?xml version="1.0" standalone="no"?>
<!DOCTYPE svg PUBLIC "-//W3C//DTD SVG 20010904//EN"
 "http://www.w3.org/TR/2001/REC-SVG-20010904/DTD/svg10.dtd">
<svg version="1.0" xmlns="http://www.w3.org/2000/svg"
 width="700.000000pt" height="700.000000pt" viewBox="0 0 700.000000 700.000000"
 preserveAspectRatio="xMidYMid meet">
<metadata>
Created by potrace 1.11, written by Peter Selinger 2001-2013
</metadata>
<g transform="translate(0.000000,700.000000) scale(0.100000,-0.100000)"
fill="#000000" stroke="none">
<path d="M415 6948 c3 -29 129 -1443 281 -3142 151 -1700 276 -3091 277 -3093
2 -1 568 -162 1258 -358 l1254 -355 1265 356 c696 196 1265 356 1266 357 0 1
125 1406 277 3122 153 1716 279 3130 281 3143 l3 22 -3084 0 -3084 0 6 -52z
m5007 -1313 c-2 -44 -17 -211 -33 -372 -16 -161 -29 -297 -29 -302 0 -8 -446
-11 -1475 -11 l-1475 0 0 -29 c0 -16 14 -183 30 -371 17 -188 30 -353 30 -366
l0 -24 1410 0 c1121 0 1410 -3 1410 -12 0 -7 -5 -42 -10 -78 -5 -36 -53 -553
-105 -1150 -52 -597 -97 -1100 -100 -1117 -3 -18 -11 -33 -18 -33 -7 0 -363
-97 -790 -215 l-778 -215 -787 217 c-433 119 -790 219 -794 222 -7 6 -98 1109
-98 1182 l0 29 379 0 379 0 5 -42 c4 -24 16 -161 28 -305 l23 -263 50 -14 c28
-8 222 -61 430 -117 l379 -102 424 114 c234 63 428 116 432 119 7 4 101 934
101 988 0 9 -275 12 -1340 12 l-1340 0 0 23 c0 12 -42 497 -94 1077 -52 580
-97 1094 -101 1142 l-7 88 964 3 c529 1 1400 2 1933 2 l970 0 -3 -80z"/>
</g>
</svg>
